<svg width="17" height="24" viewBox="0 0 17 24" fill="none" xmlns="http://www.w3.org/2000/svg">
<path d="M16.8 24H0.474391V20.7805L8.17916 12.6179C9.237 11.4688 10.0167 10.4661 10.5184 9.60976C11.031 8.75339 11.2872 7.94038 11.2872 7.17073C11.2872 6.11924 11.0201 5.29539 10.4857 4.69919C9.95131 4.09214 9.18793 3.78862 8.19552 3.78862C7.12678 3.78862 6.2816 4.15718 5.65998 4.89431C5.04927 5.6206 4.74391 6.57995 4.74391 7.77236H0C0 6.33062 0.343525 5.01355 1.03057 3.82114C1.72853 2.62873 2.71003 1.69648 3.97507 1.02439C5.24012 0.341463 6.6742 0 8.27731 0C10.7311 0 12.6341 0.585366 13.9864 1.7561C15.3496 2.92683 16.0312 4.57995 16.0312 6.71545C16.0312 7.88618 15.7258 9.07859 15.1151 10.2927C14.5044 11.5068 13.4574 12.9214 11.9743 14.5366L6.55969 20.2114H16.8V24Z" fill="#EC1630"/>
</svg>
