<svg width="85" height="111" viewBox="0 0 85 111" fill="none" xmlns="http://www.w3.org/2000/svg">
<path d="M85 19.9524C85 9.27058 76.1376 0.580322 65.2441 0.580322C56.6176 0.580322 49.2658 6.03056 46.5792 13.6036H7.4707C3.35136 13.6036 0 16.8898 0 20.9292V103.255C0 107.294 3.35136 110.58 7.4707 110.58H69.3945C73.5139 110.58 76.8652 107.294 76.8652 103.255V35.6082C81.7921 32.0819 85 26.3781 85 19.9524ZM65.2441 5.46404C73.3914 5.46404 80.0195 11.9635 80.0195 19.9524C80.0195 27.9414 73.3914 34.4408 65.2441 34.4408C57.0969 34.4408 50.4688 27.9414 50.4688 19.9524C50.4688 11.9635 57.0969 5.46404 65.2441 5.46404ZM71.8848 103.255C71.8848 104.601 70.7676 105.697 69.3945 105.697H7.4707C6.09759 105.697 4.98047 104.601 4.98047 103.255V20.9292C4.98047 19.5827 6.09759 18.4873 7.4707 18.4873H45.5446C45.5075 18.9711 45.4883 19.4596 45.4883 19.9524C45.4883 30.6343 54.3507 39.3245 65.2441 39.3245C67.573 39.3245 69.8084 38.9262 71.8848 38.1973V103.255Z" fill="#C4C4C4"/>
</svg>
