<svg width="20" height="19" viewBox="0 0 20 19" fill="none" xmlns="http://www.w3.org/2000/svg">
<path d="M17.884 1.77177C17.0023 0.890092 15.851 0.445569 14.6912 0.421301C13.4707 0.394593 12.2429 0.836626 11.3199 1.76083L3.09799 9.98271C1.89811 11.1875 1.23742 12.7857 1.23742 14.4835L1.23742 17.2038C1.23742 17.8754 1.78028 18.4183 2.45186 18.4183L5.17222 18.4183C6.87004 18.4183 8.46826 17.7576 9.6742 16.5565L17.8851 8.34553C19.6947 6.53487 19.6947 3.58375 17.884 1.77177ZM7.95826 14.8381C7.21379 15.5802 6.22279 15.9894 5.17232 15.9894L3.66634 15.9894L3.66634 14.4835C3.66634 13.433 4.07561 12.442 4.81642 11.6987L10.2365 6.27862L13.3771 9.41919L7.95826 14.8381ZM16.1668 6.62959L15.0944 7.70198L11.9538 4.56141L13.0261 3.48907C13.8933 2.62195 15.302 2.62439 16.1667 3.48907C17.0314 4.35492 17.0314 5.76369 16.1668 6.62959Z" fill="white" stroke="#EC1630" stroke-width="0.5"/>
</svg>
