<svg width="31" height="43" viewBox="0 0 31 43" fill="none" xmlns="http://www.w3.org/2000/svg">
<path d="M7.04545 0.0803223H1.40909C0.630832 0.0803223 0 0.651615 0 1.35642V12.8413H2.81818V9.01301H7.04545C8.60188 9.01301 9.86364 7.87034 9.86364 6.46081V2.63252C9.86364 1.22299 8.60188 0.0803223 7.04545 0.0803223ZM7.04545 6.46081H2.81818V2.63252H7.04545V6.46081Z" fill="#EC1630"/>
<path d="M17.9091 0.0803223H12.2727C11.4945 0.0803223 10.8636 0.651615 10.8636 1.35642V11.5652C10.8636 12.27 11.4945 12.8413 12.2727 12.8413H17.9091C19.4655 12.8413 20.7273 11.6986 20.7273 10.2891V2.63252C20.7273 1.22299 19.4655 0.0803223 17.9091 0.0803223ZM17.9091 10.2891H13.6818V2.63252H17.9091V10.2891Z" fill="#EC1630"/>
<path d="M30.1818 2.63252V0.0803223H23.1364C22.3581 0.0803223 21.7273 0.651615 21.7273 1.35642V12.8413H24.5454V7.73691H30.1818V5.18471H24.5454V2.63252H30.1818Z" fill="#EC1630"/>
<path d="M11 42.0803H5.9858V23.7429L0 25.5042V21.6359L10.4621 18.0803H11V42.0803Z" fill="#EC1630"/>
</svg>
